<?xml version="1.0" encoding="utf-8"?>
<?xml-stylesheet type="text/xsl" href="rss1.xsl"?>
<rss version="2.0" xmlns:atom="http://www.w3.org/2005/Atom" xmlns:content="http://purl.org/rss/1.0/modules/content/" xmlns:dc="http://purl.org/dc/elements/1.1/" xmlns:media="http://search.yahoo.com/mrss/">
<channel>
 <title>Getty</title>
 <link>http://www.gettyimg.com/</link>
 <atom:link href="http://www.gettyimg.com/" rel="self" type="application/rss+xml" />

 
                <item>
                <title><![CDATA[【Requests】[REQ AUD] - Morgan Wallen - One thing at a time album]]></title>
                <link><![CDATA[https://sharemania.us/threads/morgan-wallen-one-thing-at-a-time-album.233996/]]></link>
                <description><![CDATA[<article>
<blockquote class="messageText SelectQuoteContainer ugc baseHtml">
Can anyone post Morgan Wallen's One thing at a time album in dolby atmos?
<div class="messageTextEndMarker">&nbsp;</div>
</blockquote>
</article>]]></description>
                <author><![CDATA[quick]]></author>
                </item>

                
                <item>
                <title><![CDATA[【Albums (lossless)】PACK - TAYLOR SWIFT ERAS TOUR EXTENDED ALBUM]]></title>
                <link><![CDATA[https://sharemania.us/threads/taylor-swift-eras-tour-extended-album.233994/]]></link>
                <description><![CDATA[<article>
<blockquote class="messageText SelectQuoteContainer ugc baseHtml">
Hello, this is the live album of the Extended Version of the Eras Tour based on the video of szymek04sawicki.145617.<br>
<br>
Remastered in WavePad.<br>
<br>
<br>
<img src="https://assets.aboutamazon.com/dims4/default/7fc17d9/2147483647/strip/true/crop/1999x1125+1+0/resize/1320x743!/quality/90/?url=https%3A%2F%2Famazon-blogs-brightspot.s3.amazonaws.com%2F7a%2Ff6%2F2381a7084f3184ed19fc33d2efae%2Ftaylor-swift-eras-ext-pvod-1920x1080.jpeg" class="bbCodeImage LbImage" alt="[​IMG]" data-url="https://assets.aboutamazon.com/dims4/default/7fc17d9/2147483647/strip/true/crop/1999x1125+1+0/resize/1320x743!/quality/90/?url=https%3A%2F%2Famazon-blogs-brightspot.s3.amazonaws.com%2F7a%2Ff6%2F2381a7084f3184ed19fc33d2efae%2Ftaylor-swift-eras-ext-pvod-1920x1080.jpeg" style=""><br>
<br>
<br>
Looslees ALAC:<br>
<br>
<div class="bbCodeBlock bbCodeVfcHH HiddenContent">
<div class="attribution type">Hidden Content:</div>
<blockquote>You must either reply or click 'Like' to see the hidden information contained here.</blockquote>
</div>m4a:<br>
<br>
<div class="bbCodeBlock bbCodeVfcHH HiddenContent">
<div class="attribution type">Hidden Content:</div>
<blockquote>You must either reply or click 'Like' to see the hidden information contained here.</blockquote>
</div>mp3:<br>
<br>
<div class="bbCodeBlock bbCodeVfcHH HiddenContent">
<div class="attribution type">Hidden Content:</div>
<blockquote>You must either reply or click 'Like' to see the hidden information contained here.</blockquote>
</div>
<div class="messageTextEndMarker">&nbsp;</div>
</blockquote>
</article>]]></description>
                <author><![CDATA[johanfurieq345]]></author>
                </item>

                
                <item>
                <title><![CDATA[【PRORES HD】TAEYEON - To. X [Master ProRes 1080p]]]></title>
                <link><![CDATA[https://sharemania.us/threads/taeyeon-to-x-master-prores-1080p.233995/]]></link>
                <description><![CDATA[<article>
<blockquote class="messageText SelectQuoteContainer ugc baseHtml">
<div style="text-align: center"><img src="https://i.ibb.co/qJphWhW/TAEYEON-To-X-Master-Pro-Res-1080p-mp4.png" class="bbCodeImage LbImage" alt="[​IMG]" data-url="https://i.ibb.co/qJphWhW/TAEYEON-To-X-Master-Pro-Res-1080p-mp4.png" style=""> <br>
<br>
<div class="ToggleTriggerAnchor bbCodeSpoilerContainer">
<button type="button" class="button bbCodeSpoilerButton ToggleTrigger Tooltip JsOnly" data-target="> .SpoilerTarget"><span>Spoiler: <span class="SpoilerTitle">Mediainfo</span></span></button>
<div class="SpoilerTarget bbCodeSpoilerText"><b>General</b><br>
Complete name : TAEYEON -To. X [Master ProRes 1080p].mp4<br>
Format : MPEG-4<br>
Format profile : QuickTime<br>
Codec ID : qt 2005.03 (qt )<br>
File size : 3.23 GiB<br>
Duration : 2 min 57 s<br>
Overall bit rate mode : Variable<br>
Overall bit rate : 157 Mb/s<br>
Encoded date : UTC 2023-11-26 12:48:08<br>
Tagged date : UTC 2023-11-26 12:51:00<br>
Writing library : Apple QuickTime<br>
TIM : 00:00:00:00<br>
TSC : 24000<br>
TSZ : 1001<br>
<br>
<b>Video</b><br>
ID : 1<br>
Format : ProRes<br>
Format version : Version 0<br>
Format profile : 422 HQ<br>
Codec ID : apch<br>
Duration : 2 min 57 s<br>
Bit rate mode : Variable<br>
Bit rate : 155 Mb/s<br>
Width : 1 920 pixels<br>
Height : 1 080 pixels<br>
Display aspect ratio : 16:9<br>
Frame rate mode : Constant<br>
Frame rate : 23.976 (24000/1001) FPS<br>
Color space : YUV<br>
Chroma subsampling : 4:2:2<br>
Scan type : Progressive<br>
Bits/(Pixel*Frame) : 3.115<br>
Stream size : 3.19 GiB (99%)<br>
Writing library : Apple<br>
Language : English<br>
Encoded date : UTC 2023-11-26 12:48:08<br>
Tagged date : UTC 2023-11-26 12:48:08<br>
Color primaries : BT.709<br>
Transfer characteristics : BT.709<br>
Matrix coefficients : BT.709<br>
<br>
<b>Audio</b><br>
ID : 2<br>
Format : PCM<br>
Format settings : Little / Signed<br>
Codec ID : sowt<br>
Duration : 2 min 57 s<br>
Bit rate mode : Constant<br>
Bit rate : 1 536 kb/s<br>
Channel(s) : 2 channels<br>
Channel layout : L R<br>
Sampling rate : 48.0 kHz<br>
Bit depth : 16 bits<br>
Stream size : 32.4 MiB (1%)<br>
Language : English<br>
Encoded date : UTC 2023-11-26 12:48:08<br>
Tagged date : UTC 2023-11-26 12:48:08<br>
<br>
<b>Other</b><br>
ID : 3<br>
Type : Time code<br>
Format : QuickTime TC<br>
Duration : 2 min 57 s<br>
Frame rate : 23.976 (24000/1001) FPS<br>
Time code of first frame : 00:00:00:00<br>
Time code of last frame : 00:02:56:20<br>
Time code, stripped : Yes<br>
Language : English<br>
Encoded date : UTC 2023-11-26 12:48:08<br>
Tagged date : UTC 2023-11-26 12:48:08</div>
</div>
<div class="bbCodeBlock bbCodeVfcHH HiddenContent">
<div class="attribution type">Hidden Content:</div>
<blockquote>You must reply before you can see the hidden data contained here.</blockquote>
</div></div><br>
<div class="messageTextEndMarker">&nbsp;</div>
</blockquote>
</article>]]></description>
                <author><![CDATA[von_3649]]></author>
                </item>

                </channel></rss>